<?xml version="1.0" encoding="UTF-8"?>
<svg width="482px" height="188px" viewBox="0 0 482 188" version="1.1" xmlns="http://www.w3.org/2000/svg" xmlns:xlink="http://www.w3.org/1999/xlink">
    <!-- Generator: Sketch 61.2 (89653) - https://sketch.com -->
    <title>redpixelthemes-logo</title>
    <desc>Created with Sketch.</desc>
    <g id="Page-1" stroke="none" stroke-width="1" fill="none" fill-rule="evenodd">
        <g id="redpixelthemes-logo" fill="#FFFFFF" fill-rule="nonzero">
            <rect id="Rectangle" transform="translate(154.993307, 47.666822) rotate(-39.949359) translate(-154.993307, -47.666822) " x="151.763359" y="44.4368737" width="6.45989654" height="6.45989654"></rect>
            <path d="M178.58,93.71 C178.58,112.37 172.44,129.62 162.04,143.64 C159.59,146.94 156.89,150.07 153.99,152.99 C150.05,156.96 145.72,160.54 141.06,163.68 C132.36,169.57 122.52,173.94 111.91,176.39 C111.09,173.36 110.5,169.1 111.22,163.86 C128.21,158.85 142.62,147.82 151.97,133.22 C159.22,121.9 163.43,108.43 163.43,93.99 C163.43,68.39 150.22,45.88 130.25,32.89 L133.38,27.44 L127.96,24.32 L131.47,18.07 C132.42,18.55 133.36,19.05 134.29,19.56 L132.76,22.52 L138.49,25.49 L139.84,22.89 C142.66,24.73 145.37,26.74 147.95,28.88 L143.93,32.91 L148.51,37.47 L152.76,33.2 C153.48,33.9 154.2,34.61 154.9,35.34 L157.35,33.21 L161.59,38.09 L159.21,40.16 C161.79,43.27 164.15,46.57 166.26,50.02 L162.38,51.92 L165.23,57.72 L169.43,55.66 C170.63,58.01 171.72,60.42 172.7,62.88 C173.12,63.92 173.51,64.98 173.88,66.04 L172.63,66.38 L173.4,69.2 L170.64,69.96 L172.34,76.19 L176.47,75.06 C177.85,81.07 178.58,87.3 178.58,93.71" id="Path"></path>
            <rect id="Rectangle" transform="translate(116.444744, 4.093518) rotate(-76.590515) translate(-116.444744, -4.093518) " x="113.214869" y="0.863642519" width="6.45975096" height="6.45975096"></rect>
            <rect id="Rectangle" transform="translate(123.799296, 18.262454) rotate(-68.844428) translate(-123.799296, -18.262454) " x="120.56931" y="15.0324676" width="6.45997277" height="6.45997277"></rect>
            <path d="M113.78,19.27 L107.45,18.02 L106.49,22.91 C108.61,23.38 110.69,23.94 112.74,24.6 L113.78,19.27 Z" id="Path"></path>
            <rect id="Rectangle" transform="translate(136.292479, 11.063079) rotate(-62.581687) translate(-136.292479, -11.063079) " x="133.062363" y="7.83296346" width="6.46023107" height="6.46023107"></rect>
            <rect id="Rectangle" transform="translate(150.856396, 24.339989) rotate(-50.164352) translate(-150.856396, -24.339989) " x="147.626333" y="21.1099264" width="6.46012523" height="6.46012523"></rect>
            <rect id="Rectangle" transform="translate(165.194083, 33.435106) rotate(-40.949310) translate(-165.194083, -33.435106) " x="161.964039" y="30.205062" width="6.46008802" height="6.46008802"></rect>
            <polygon id="Path" points="169.69 52.17 175.34 49.4 172.5 43.6 166.7 46.44 168.04 49.16 169.54 52.24"></polygon>
            <polygon id="Path" points="173.41 69.22 174.35 72.62 177.81 71.67 180.57 70.92 178.86 64.69 173.88 66.06 172.64 66.4"></polygon>
            <path d="M17.75,94 C17.75,60.94 39.78,33.02 69.96,24.13 C70.68,18.89 70.09,14.63 69.27,11.6 C52.99,15.37 38.48,23.64 27.19,35.01 C24.28,37.93 21.59,41.06 19.13,44.37 C8.73,58.39 2.59,75.64 2.59,94.3 C2.59,100.7 3.32,106.94 4.69,112.94 L8.82,111.81 L10.53,118.04 L7.77,118.8 L8.54,121.62 L7.29,121.96 C7.66,123.03 8.05,124.08 8.47,125.13 C9.45,127.59 10.54,130 11.74,132.35 L15.95,130.29 L18.79,136.09 L14.91,137.99 C17.03,141.44 19.38,144.74 21.96,147.85 L19.58,149.92 L23.81,154.8 L26.26,152.67 C26.96,153.39 27.67,154.1 28.4,154.81 L32.65,150.54 L37.22,155.1 L33.2,159.13 C35.78,161.27 38.49,163.28 41.31,165.12 L42.66,162.52 L48.39,165.49 L46.86,168.45 C47.79,168.96 48.73,169.46 49.68,169.94 L53.19,163.69 L47.77,160.58 L50.9,155.13 C30.96,142.11 17.75,119.6 17.75,94 M25.78,144.88 L21.63,139.93 L26.58,135.78 L30.73,140.73 L25.78,144.88 Z" id="Shape"></path>
            <rect id="Rectangle" transform="translate(64.740662, 183.905909) rotate(-76.602990) translate(-64.740662, -183.905909) " x="61.5106221" y="180.675869" width="6.46007988" height="6.46007988"></rect>
            <rect id="Rectangle" transform="translate(57.414610, 169.745039) rotate(-68.851839) translate(-57.414610, -169.745039) " x="54.1844389" y="166.514868" width="6.46034214" height="6.46034214"></rect>
            <path d="M67.41,168.73 L73.74,169.98 L74.71,165.09 C72.59,164.62 70.51,164.06 68.46,163.4 L67.41,168.73 Z" id="Path"></path>
            <rect id="Rectangle" transform="translate(44.904125, 176.953565) rotate(-62.586773) translate(-44.904125, -176.953565) " x="41.6741582" y="173.723598" width="6.45993362" height="6.45993362"></rect>
            <rect id="Rectangle" transform="translate(30.355324, 163.661731) rotate(-50.164352) translate(-30.355324, -163.661731) " x="27.1252614" y="160.431668" width="6.46012523" height="6.46012523"></rect>
            <rect id="Rectangle" transform="translate(16.012722, 154.571671) rotate(-40.941227) translate(-16.012722, -154.571671) " x="12.7826457" y="151.341595" width="6.46015262" height="6.46015262"></rect>
            <polygon id="Path" points="11.5 135.83 5.85 138.6 8.69 144.4 14.48 141.56 13.15 138.83 11.64 135.76"></polygon>
            <polygon id="Path" points="7.78 118.78 6.84 115.38 3.38 116.33 0.62 117.08 2.32 123.31 7.3 121.94 8.55 121.6"></polygon>
            <polygon id="Path" points="65.49 60.97 73.64 60.97 73.64 52.83 81.78 52.83 81.78 43.45 73.64 43.45 65.49 43.45 65.49 52.83"></polygon>
            <rect id="Rectangle" x="73.64" y="52.83" width="8.14" height="8.14"></rect>
            <rect id="Rectangle" x="49.21" y="93.54" width="8.14" height="8.14"></rect>
            <rect id="Rectangle" x="49.21" y="69.11" width="8.14" height="8.14"></rect>
            <rect id="Rectangle" x="65.49" y="93.54" width="8.14" height="8.14"></rect>
            <rect id="Rectangle" x="81.78" y="77.26" width="8.14" height="8.14"></rect>
            <rect id="Rectangle" x="81.78" y="60.97" width="8.14" height="8.14"></rect>
            <rect id="Rectangle" x="65.49" y="77.26" width="8.14" height="8.14"></rect>
            <rect id="Rectangle" x="65.49" y="69.11" width="8.14" height="8.14"></rect>
            <rect id="Rectangle" x="57.35" y="77.26" width="8.14" height="8.14"></rect>
            <rect id="Rectangle" x="40.69" y="77.26" width="8.51" height="8.14"></rect>
            <rect id="Rectangle" x="40.69" y="93.54" width="8.51" height="8.14"></rect>
            <rect id="Rectangle" x="49.21" y="101.69" width="8.14" height="8.81"></rect>
            <polygon id="Path" points="65.49 101.69 65.49 93.54 57.35 93.54 57.35 101.69 57.35 110.49 65.49 110.49"></polygon>
            <rect id="Rectangle" x="81.78" y="101.69" width="8.14" height="8.81"></rect>
            <rect id="Rectangle" x="65.49" y="101.69" width="8.14" height="8.81"></rect>
            <rect id="Rectangle" x="73.64" y="101.69" width="8.14" height="8.81"></rect>
            <rect id="Rectangle" x="65.49" y="110.49" width="8.14" height="8.14"></rect>
            <rect id="Rectangle" x="57.35" y="118.63" width="8.14" height="8.81"></rect>
            <rect id="Rectangle" x="65.49" y="118.63" width="8.14" height="8.81"></rect>
            <rect id="Rectangle" x="73.64" y="118.63" width="8.14" height="8.81"></rect>
            <rect id="Rectangle" x="57.35" y="127.44" width="8.14" height="8.14"></rect>
            <rect id="Rectangle" x="57.35" y="135.58" width="8.14" height="8.8"></rect>
            <rect id="Rectangle" x="65.49" y="135.58" width="8.14" height="8.8"></rect>
            <rect id="Rectangle" x="73.64" y="135.58" width="8.14" height="8.81"></rect>
            <rect id="Rectangle" x="102.99" y="109.83" width="8.14" height="8.14"></rect>
            <path d="M102.99,117.97 L102.99,109.83 L111.13,109.83 L111.13,101.69 L119.27,101.69 L119.27,108.15 C131.69,103.24 140.48,91.14 140.48,76.97 C140.48,58.46 125.47,43.45 106.96,43.45 L106.2,43.45 L98.06,43.45 L89.92,43.45 L89.92,52.83 L81.78,52.83 L81.78,60.97 L89.92,60.97 L89.92,69.11 L81.78,69.11 L81.78,77.25 L89.92,77.25 L89.92,85.39 L81.78,85.39 L81.78,77.25 L73.64,77.25 L73.64,85.39 L65.5,85.39 L65.5,93.53 L73.64,93.53 L81.78,93.53 L81.78,101.67 L89.92,101.67 L89.92,110.48 L95.55,110.48 L102.69,117.96 L102.99,117.96 L102.99,117.97 Z M131.49,85.4 L131.49,93.54 L123.35,93.54 L123.35,85.4 L115.21,85.4 L115.21,77.26 L123.35,77.26 L123.35,85.4 L131.49,85.4 Z M123.35,60.97 L115.21,60.97 L115.21,52.83 L123.35,52.83 L123.35,60.97 Z M98.07,93.54 L106.21,93.54 L106.21,101.68 L98.07,101.68 L98.07,93.54 Z" id="Shape"></path>
            <rect id="Rectangle" x="111.14" y="109.83" width="8.14" height="8.14"></rect>
            <polygon id="Path" points="111.85 134.92 111.85 143.73 120.61 143.73"></polygon>
            <polygon id="Path" points="119.28 117.97 111.14 117.97 111.14 126.78 111.3 126.78 119.28 126.78"></polygon>
            <polygon id="Path" points="127.42 126.78 127.42 126.78 127.42 117.97 119.28 117.97 119.28 126.78"></polygon>
            <polygon id="Path" points="102.99 126.78 109.34 126.78 102.99 120.88"></polygon>
            <rect id="Rectangle" x="119.28" y="126.78" width="8.14" height="8.14"></rect>
            <rect id="Rectangle" x="127.42" y="126.78" width="8.14" height="8.14"></rect>
            <rect id="Rectangle" x="127.42" y="134.92" width="8.14" height="8.8"></rect>
            <polygon id="Path" points="127.42 134.92 127.42 134.92 119.28 134.92 119.28 135.08 127.42 143.73"></polygon>
            <rect id="Rectangle" x="40.69" y="52.83" width="8.51" height="8.14"></rect>
            <rect id="Rectangle" x="57.35" y="43.45" width="8.14" height="9.38"></rect>
            <rect id="Rectangle" x="115.21" y="52.83" width="8.14" height="8.14"></rect>
            <rect id="Rectangle" x="115.21" y="77.26" width="8.14" height="8.14"></rect>
            <rect id="Rectangle" x="123.35" y="85.4" width="8.14" height="8.14"></rect>
            <path d="M223.78,73.65 C220.27,73.65 217.36,74.87 215.05,77.3 C212.75,79.74 211.59,82.75 211.59,86.35 L211.59,110.65 L204.63,110.65 L204.63,67.92 L211.59,67.92 L211.59,72.36 C213.87,70.59 215.85,69.36 217.54,68.67 C219.59,67.76 221.87,67.3 224.38,67.3 C230.17,67.3 234.92,69.58 238.62,74.13 L232.6,77.41 C230.28,74.9 227.34,73.65 223.78,73.65" id="Path"></path>
            <path d="M274.4,86 C273.13,77.76 267.98,73.64 258.97,73.64 C254.46,73.64 250.58,75.16 247.33,78.21 C244.07,81.26 242.47,84.97 242.52,89.34 C242.56,93.62 244.1,97.26 247.13,100.26 C250.16,103.26 253.81,104.77 258.09,104.77 C261.73,104.77 265.19,104.09 268.47,102.72 C272.29,101.08 274.73,98.87 275.77,96.1 L280.34,100.54 C278.47,104.05 275.49,106.73 271.4,108.6 C267.67,110.37 263.52,111.26 258.98,111.26 C252.61,111.26 247.16,109.15 242.63,104.94 C238.1,100.73 235.84,95.53 235.84,89.34 C235.84,83.2 238.11,77.99 242.67,73.71 C247.22,69.43 252.66,67.29 258.99,67.29 C265.82,67.34 271.16,68.88 275.03,71.93 C279.63,75.53 281.92,81.1 281.92,88.66 C281.92,89.57 281.9,90.53 281.85,91.53 L249.08,91.53 L249.08,86.07 L274.34,86.07 L274.4,86 Z" id="Path"></path>
            <path d="M288.05,79.38 C289.96,75.74 292.65,72.92 296.1,70.92 C299.56,68.92 303.38,67.92 307.57,67.92 L317.95,67.92 L317.95,56.66 L324.57,56.66 L324.57,110.66 L307.91,110.66 C301.72,110.66 296.46,108.62 292.14,104.55 C287.82,100.48 285.66,95.39 285.66,89.29 C285.66,85.82 286.45,82.52 288.05,79.38 M317.95,74.06 L308.46,74.06 C304.09,74.06 300.38,75.52 297.33,78.43 C294.28,81.34 292.76,84.96 292.76,89.29 C292.76,93.57 294.25,97.05 297.23,99.73 C300.21,102.42 303.89,103.76 308.26,103.76 L317.95,103.76 L317.95,74.06 Z" id="Shape"></path>
            <path d="M365.8,99.11 C363.93,102.75 361.27,105.58 357.81,107.61 C354.35,109.63 350.53,110.65 346.34,110.65 L335.96,110.65 L335.96,124.85 L329.34,124.85 L329.34,67.92 L346,67.92 C352.14,67.92 357.39,69.98 361.74,74.1 C366.08,78.22 368.26,83.33 368.26,89.43 C368.26,92.78 367.44,96.01 365.8,99.11 M335.97,104.43 L345.46,104.43 C349.83,104.43 353.53,103.01 356.55,100.16 C359.58,97.32 361.09,93.73 361.09,89.41 C361.09,85.13 359.61,81.62 356.65,78.86 C353.69,76.11 350.03,74.73 345.66,74.73 L335.97,74.73 L335.97,104.43 L335.97,104.43 Z" id="Shape"></path>
            <rect id="Rectangle" x="372.77" y="67.3" width="6.96" height="43.35"></rect>
            <polygon id="Path" points="417.27 110.65 405.53 94.92 393.9 110.65 385.66 110.65 401.95 88.94 385.71 67.3 393.66 67.3 405.48 83.15 416.81 67.3 425.27 67.3 409.69 89 425.83 110.65"></polygon>
            <path d="M462.53,86 C461.26,77.76 456.11,73.64 447.1,73.64 C442.59,73.64 438.71,75.16 435.46,78.21 C432.21,81.26 430.6,84.97 430.65,89.34 C430.7,93.62 432.23,97.26 435.26,100.26 C438.29,103.26 441.94,104.77 446.22,104.77 C449.86,104.77 453.32,104.09 456.6,102.72 C460.42,101.08 462.86,98.87 463.9,96.1 L468.47,100.54 C466.6,104.05 463.62,106.73 459.53,108.6 C455.8,110.37 451.66,111.26 447.1,111.26 C440.73,111.26 435.28,109.15 430.75,104.94 C426.22,100.73 423.96,95.53 423.96,89.34 C423.96,83.2 426.24,77.99 430.79,73.71 C435.34,69.43 440.78,67.29 447.1,67.29 C453.93,67.34 459.28,68.88 463.14,71.93 C467.74,75.53 470.04,81.1 470.04,88.66 C470.04,89.57 470.02,90.53 469.97,91.53 L437.2,91.53 L437.2,86.07 L462.46,86.07 L462.53,86 Z" id="Path"></path>
            <rect id="Rectangle" x="474.42" y="56.65" width="6.96" height="54"></rect>
            <polygon id="Path" points="204.63 137.27 213.32 137.27 213.32 157.83 216.52 157.83 216.52 137.27 225.14 137.27 225.14 134.46 204.63 134.46"></polygon>
            <polygon id="Path" points="271.81 144.98 258.08 144.98 258.08 134.46 254.92 134.46 254.92 157.83 258.08 157.83 258.08 147.79 271.81 147.79 271.81 157.83 274.97 157.83 274.97 134.46 271.81 134.46"></polygon>
            <polygon id="Path" points="305.46 157.83 323.2 157.83 323.2 154.96 308.59 154.96 308.59 147.66 320.57 147.66 321.77 144.92 308.59 144.92 308.59 137.33 323.2 137.33 323.2 134.46 305.46 134.46"></polygon>
            <polygon id="Path" points="367.14 149.11 355.75 134.46 354.01 134.46 354.01 157.83 357.17 157.83 357.17 141.23 366.66 153.42 367.69 153.42 377.11 141.24 377.11 157.83 380.34 157.83 380.34 134.46 378.57 134.46"></polygon>
            <polygon id="Path" points="411.15 157.83 428.89 157.83 428.89 154.96 414.28 154.96 414.28 147.66 426.25 147.66 427.46 144.92 414.28 144.92 414.28 137.33 428.89 137.33 428.89 134.46 411.15 134.46"></polygon>
            <path d="M470.97,144.38 C465.92,143.57 463.85,142.38 463.85,140.29 C463.85,138.34 466.5,137.01 470.45,136.98 C473.78,136.93 476.63,137.94 478.9,139.92 L479.23,140.21 L481.38,137.96 L481,137.65 C478.15,135.32 474.58,134.14 470.42,134.14 C464.39,134.14 460.34,136.61 460.34,140.29 C460.34,143.93 463.19,146.03 469.57,147.11 C475.13,148.04 477.39,149.32 477.39,151.55 C477.39,153.81 474.57,155.28 470.22,155.28 C466.31,155.28 463.17,154.34 460.89,152.49 L460.49,152.16 L458.83,154.87 L459.19,155.11 C462.16,157.13 465.88,158.15 470.22,158.15 C476.71,158.15 480.91,155.52 480.91,151.45 C480.91,147.68 477.85,145.49 470.97,144.38" id="Path"></path>
            <rect id="Rectangle" x="371.22" y="51.33" width="10.11" height="10.11"></rect>
            <rect id="Rectangle" x="381.34" y="44.43" width="6.9" height="6.9"></rect>
            <rect id="Rectangle" x="374.43" y="37.52" width="5.3" height="5.3"></rect>
            <rect id="Rectangle" x="384.51" y="32.94" width="3.74" height="3.74"></rect>
        </g>
    </g>
</svg>